<svg xmlns="http://www.w3.org/2000/svg" version="1.0" width="750" height="190">
  <path d="M190.309 114.353h-23.207l-5.119 10.979H141.11l36.345-66.51h22.297l13.384 66.51h-21.408l-1.419-10.979zm-1.757-14.382l-3.174-23.91-11.353 23.91h14.527zM237.768 58.822h33.985c7.404 0 12.638 1.767 15.717 5.307 3.07 3.536 4.045 8.576 2.92 15.107-1.161 6.715-4.077 11.963-8.744 15.744-4.671 3.781-11.125 5.671-19.371 5.671h-11.191l-4.261 24.681H226.29l11.478-66.51zm15.645 28.355h5.008c3.942 0 6.823-.69 8.658-2.063 1.832-1.376 2.933-3.138 3.302-5.288.361-2.086-.024-3.857-1.155-5.307-1.135-1.455-3.615-2.179-7.434-2.179h-5.824l-2.555 14.837zM309.063 58.822h54.788l-2.451 14.2h-34.301l-1.818 10.57h31.813l-2.341 13.561h-31.817l-2.262 13.117h35.295l-2.602 15.062h-55.785l11.481-66.51zM371.307 125.332l11.48-66.51h34.075c6.317 0 11.054.541 14.204 1.63 3.154 1.093 5.495 3.109 7.031 6.053 1.538 2.952 1.939 6.547 1.214 10.776-.643 3.696-1.976 6.878-3.997 9.557-2.028 2.675-4.56 4.845-7.584 6.505-1.929 1.061-4.47 1.939-7.632 2.637 2.292.816 3.925 1.634 4.896 2.448.66.546 1.547 1.71 2.668 3.5 1.12 1.783 1.838 3.164 2.153 4.132l6.574 19.272h-23.101l-7.423-20.326c-.929-2.63-1.865-4.336-2.816-5.125-1.295-1.029-2.876-1.548-4.741-1.548H396.5l-4.656 26.999h-20.537zm27.369-39.563h8.614c.937 0 2.79-.301 5.575-.907 1.4-.271 2.625-.967 3.672-2.087 1.058-1.121 1.706-2.402 1.959-3.856.368-2.147-.025-3.795-1.184-4.946-1.156-1.148-3.598-1.722-7.327-1.722h-8.979l-2.33 13.518zM456.11 58.822h62.147l-2.836 16.422H494.57l-8.646 50.088h-20.44l8.642-50.088h-20.851l2.835-16.422zM575.804 58.822h20.399l-6.843 39.623c-.677 3.931-1.924 7.641-3.749 11.133-1.82 3.489-4.255 6.546-7.311 9.156-3.056 2.617-6.099 4.453-9.142 5.51-4.223 1.481-9.122 2.225-14.689 2.225-3.219 0-6.69-.229-10.417-.682-3.728-.455-6.757-1.354-9.078-2.703-2.329-1.341-4.341-3.252-6.03-5.73-1.692-2.479-2.704-5.033-3.033-7.666-.533-4.228-.521-7.976.045-11.242l6.837-39.623h20.399L546.19 99.39c-.626 3.626-.114 6.462 1.536 8.501 1.648 2.041 4.246 3.059 7.796 3.059 3.523 0 6.454-1.004 8.803-3.017 2.348-2.009 3.841-4.856 4.478-8.543l7.001-40.568zM604.409 125.332l11.477-66.51h34.073c6.32 0 11.053.541 14.204 1.63 3.153 1.093 5.497 3.109 7.032 6.053 1.536 2.952 1.944 6.547 1.211 10.776-.636 3.696-1.969 6.878-3.994 9.557-2.027 2.675-4.557 4.845-7.579 6.505-1.931 1.061-4.478 1.939-7.639 2.637 2.297.816 3.93 1.634 4.899 2.448.657.546 1.547 1.71 2.667 3.5 1.116 1.783 1.838 3.164 2.15 4.132l6.575 19.272h-23.101l-7.419-20.326c-.931-2.63-1.869-4.336-2.816-5.125-1.295-1.029-2.88-1.548-4.744-1.548H629.6l-4.658 26.999h-20.533zm27.362-39.563h8.616c.933 0 2.794-.301 5.573-.907 1.403-.271 2.629-.967 3.68-2.087 1.049-1.121 1.704-2.402 1.951-3.856.374-2.147-.02-3.795-1.177-4.946-1.158-1.148-3.6-1.722-7.331-1.722h-8.98l-2.332 13.518zM694.213 58.822H749l-2.453 14.2h-34.299l-1.823 10.57h31.816l-2.343 13.561h-31.817l-2.26 13.117h35.291l-2.596 15.062h-55.785l11.482-66.51z"/>
  <g>
    <path d="M204.078 165.141v-27.374h4.337v24.144h16.138v3.23h-20.475zM243.972 165.141l12.584-27.374h4.671l13.412 27.374h-4.94l-3.821-8.291h-13.703l-3.598 8.291h-4.605zm9.455-11.242h11.109l-3.419-7.58c-1.043-2.304-1.818-4.196-2.325-5.679-.417 1.756-1.006 3.497-1.766 5.229l-3.599 8.03zM295.778 165.141v-27.374h12.295c2.501 0 4.51.275 6.023.829s2.696 1.408 3.554 2.561c.855 1.149 1.285 2.354 1.285 3.612 0 1.171-.38 2.27-1.14 3.305-.761 1.034-1.907 1.866-3.442 2.503 1.982.485 3.506 1.313 4.57 2.481 1.065 1.171 1.599 2.553 1.599 4.146 0 1.282-.323 2.474-.973 3.576-.646 1.102-1.448 1.952-2.402 2.55-.954.597-2.149 1.047-3.588 1.354-1.438.304-3.2.457-5.285.457h-12.496zm4.337-15.873h7.085c1.923 0 3.301-.104 4.136-.318 1.103-.271 1.933-.728 2.491-1.361.56-.636.839-1.432.839-2.391 0-.91-.262-1.709-.782-2.4-.522-.69-1.266-1.163-2.235-1.419-.969-.255-2.63-.383-4.984-.383h-6.55v8.272zm0 12.642h8.16c1.399 0 2.383-.043 2.949-.131.998-.149 1.833-.399 2.505-.747.669-.349 1.22-.857 1.653-1.522.431-.665.648-1.435.648-2.306 0-1.021-.314-1.908-.939-2.661-.626-.754-1.494-1.282-2.604-1.587-1.109-.307-2.707-.457-4.795-.457h-7.577v9.411zM343.026 151.808c0-4.543 1.461-8.102 4.381-10.672 2.922-2.57 6.692-3.856 11.311-3.856 3.024 0 5.752.604 8.183 1.812 2.429 1.209 4.28 2.893 5.553 5.051 1.275 2.161 1.912 4.61 1.912 7.35 0 2.775-.67 5.259-2.011 7.448-1.343 2.192-3.241 3.851-5.701 4.978-2.459 1.127-5.11 1.691-7.956 1.691-3.087 0-5.844-.622-8.272-1.869-2.428-1.245-4.269-2.942-5.52-5.097-1.253-2.157-1.88-4.435-1.88-6.836zm4.471.054c0 3.301 1.062 5.897 3.187 7.796 2.123 1.899 4.787 2.848 7.99 2.848 3.264 0 5.948-.957 8.059-2.875 2.107-1.916 3.163-4.636 3.163-8.16 0-2.227-.451-4.173-1.352-5.834-.903-1.661-2.222-2.951-3.959-3.866-1.735-.914-3.684-1.373-5.844-1.373-3.071 0-5.712.881-7.925 2.643-2.213 1.763-3.319 4.703-3.319 8.821zM397.873 165.141v-27.374h14.53c2.92 0 5.142.244 6.661.736 1.521.491 2.735 1.359 3.644 2.604s1.364 2.621 1.364 4.128c0 1.941-.754 3.579-2.259 4.91-1.505 1.333-3.83 2.18-6.974 2.54 1.147.461 2.021.914 2.617 1.362 1.266.972 2.464 2.185 3.598 3.643l5.699 7.45H421.3l-4.336-5.695c-1.267-1.646-2.31-2.901-3.129-3.773-.82-.869-1.554-1.48-2.202-1.83-.649-.348-1.309-.59-1.979-.728-.493-.087-1.296-.13-2.415-.13h-5.029v12.156h-4.337zm4.337-15.295h9.322c1.981 0 3.532-.169 4.648-.513 1.118-.343 1.968-.89 2.549-1.644.582-.753.871-1.571.871-2.454 0-1.295-.563-2.359-1.687-3.193-1.126-.833-2.902-1.252-5.331-1.252H402.21v9.056zM445.123 165.141l12.583-27.374h4.672l13.411 27.374h-4.939l-3.821-8.291h-13.702l-3.599 8.291h-4.605zm9.454-11.242h11.11l-3.42-7.58c-1.044-2.304-1.818-4.196-2.325-5.679-.418 1.756-1.007 3.497-1.766 5.229l-3.599 8.03zM502.047 165.141v-24.146H491.25v-3.229h25.975v3.229h-10.843v24.146h-4.335zM537.381 151.808c0-4.543 1.461-8.102 4.381-10.672s6.69-3.856 11.311-3.856c3.024 0 5.751.604 8.182 1.812 2.429 1.209 4.28 2.893 5.554 5.051 1.275 2.161 1.911 4.61 1.911 7.35 0 2.775-.669 5.259-2.012 7.448-1.342 2.192-3.24 3.851-5.7 4.978-2.459 1.127-5.11 1.691-7.956 1.691-3.087 0-5.843-.622-8.272-1.869-2.429-1.245-4.268-2.942-5.52-5.097-1.253-2.157-1.879-4.435-1.879-6.836zm4.469.054c0 3.301 1.063 5.897 3.188 7.796 2.123 1.899 4.786 2.848 7.991 2.848 3.264 0 5.947-.957 8.057-2.875 2.108-1.916 3.164-4.636 3.164-8.16 0-2.227-.45-4.173-1.352-5.834-.903-1.661-2.223-2.951-3.958-3.866-1.736-.914-3.685-1.373-5.846-1.373-3.07 0-5.711.881-7.924 2.643-2.213 1.763-3.32 4.703-3.32 8.821zM592.228 165.141v-27.374h14.53c2.92 0 5.142.244 6.66.736 1.521.491 2.735 1.359 3.644 2.604s1.364 2.621 1.364 4.128c0 1.941-.754 3.579-2.259 4.91-1.505 1.333-3.83 2.18-6.974 2.54 1.146.461 2.021.914 2.616 1.362 1.267.972 2.466 2.185 3.599 3.643l5.699 7.45h-5.454l-4.337-5.695c-1.266-1.646-2.31-2.901-3.128-3.773-.82-.869-1.554-1.48-2.202-1.83-.649-.348-1.308-.59-1.979-.728-.492-.087-1.295-.13-2.414-.13h-5.029v12.156h-4.336zm4.336-15.295h9.321c1.982 0 3.531-.169 4.649-.513 1.117-.343 1.968-.89 2.548-1.644.582-.753.872-1.571.872-2.454 0-1.295-.563-2.359-1.688-3.193-1.125-.833-2.901-1.252-5.33-1.252h-10.372v9.056zM643.813 165.141v-27.374h4.337v27.374h-4.337zM673.735 165.141v-27.374h23.695v3.229h-19.358v8.385h18.129v3.212h-18.129v9.318h20.117v3.23h-24.454zM720.561 156.346l4.089-.299c.194 1.368.646 2.492 1.354 3.369.708.878 1.807 1.588 3.297 2.129 1.489.541 3.165.813 5.029.813 1.654 0 3.115-.207 4.381-.616 1.266-.411 2.209-.974 2.829-1.69.617-.717.927-1.497.927-2.344 0-.858-.297-1.608-.894-2.25-.597-.64-1.581-1.18-2.952-1.616-.878-.284-2.823-.729-5.833-1.334-3.01-.603-5.12-1.173-6.326-1.709-1.564-.684-2.73-1.534-3.498-2.549-.769-1.014-1.15-2.149-1.15-3.408 0-1.382.468-2.672 1.408-3.875.938-1.2 2.31-2.112 4.111-2.735 1.803-.622 3.808-.933 6.014-.933 2.429 0 4.572.327 6.428.98 1.854.652 3.28 1.615 4.28 2.886.997 1.269 1.533 2.706 1.607 4.313l-4.156.26c-.225-1.729-.98-3.037-2.269-3.921-1.289-.884-3.193-1.326-5.712-1.326-2.623 0-4.534.402-5.734 1.206-1.199.802-1.799 1.77-1.799 2.901 0 .985.424 1.794 1.274 2.428.836.635 3.014 1.287 6.537 1.951 3.525.667 5.943 1.248 7.255 1.748 1.906.732 3.314 1.665 4.225 2.791.908 1.127 1.362 2.425 1.362 3.892 0 1.458-.498 2.831-1.497 4.119-.998 1.289-2.433 2.292-4.302 3.006-1.871.716-3.976 1.075-6.314 1.075-2.968 0-5.452-.363-7.456-1.086-2.005-.719-3.576-1.806-4.716-3.257-1.14-1.449-1.741-3.089-1.799-4.919z"/>
  </g>
  <g>
    <path d="M152.361 90.517l-17.29-80.414c18.472 8.815 33.49 23.472 42.851 41.426l-25.561 38.988zM99.238 152.735l80.223-17.334c-8.794 18.519-23.417 33.572-41.328 42.957l-38.895-25.623zM57.206 138.994L126.16 183.6c-19.286 6.861-40.24 7.14-59.524 1.08l-9.43-45.686zM37.178 99.484l17.289 80.417c-18.472-8.817-33.488-23.474-42.851-41.427l25.562-38.99zM50.884 57.349l-44.499 69.12C-.459 107.135-.737 86.133 5.307 66.798l45.577-9.449zM90.296 37.271L10.077 54.602c8.798-18.521 23.414-33.575 41.329-42.959l38.89 25.628z"/>
    <path xmlns="http://www.w3.org/2000/svg" d="M132.328 51.005L63.38 6.4c19.284-6.862 40.238-7.143 59.522-1.085l9.426 45.69z"/>
  </g>
</svg>
