<?xml version="1.0" encoding="utf-8"?>
<!-- Svg Vector Icons : http://www.onlinewebfonts.com/icon -->
<!DOCTYPE svg PUBLIC "-//W3C//DTD SVG 1.1//EN" "http://www.w3.org/Graphics/SVG/1.1/DTD/svg11.dtd">
<svg version="1.1" xmlns="http://www.w3.org/2000/svg" xmlns:xlink="http://www.w3.org/1999/xlink" x="0px" y="0px" viewBox="0 0 1000 1000" enable-background="new 0 0 1000 1000" xml:space="preserve">
<metadata> Svg Vector Icons : http://www.onlinewebfonts.com/icon </metadata>
<g><g><g><circle cx="413.7" cy="161" r="58.1"/><path d="M195.7,513.5c3.5-0.4,9.1-14.3,14.4-24.9c5.3-10.6,3.2-29.3-11.7-30.8c-7.8-0.8-15.8,3.1-21.8,6.9c-1.5,1-3.7,0.8-5-0.4c-6.9-6.1-16.1-9.9-26.1-9.9c-10.4,0-19.8,4-26.9,10.6c-1.3,1.2-3.4,1.4-4.9,0.4c-6-4.1-14.7-8.5-22.9-7.6c-14.9,1.5-17,20.2-11.7,30.8c5.3,10.6,10.9,24.5,14.3,24.9c3.2,0.4-7-23.9,0.4-31.4c1.2-1.2,4.1-1.9,5.9-1.7c1.4,0.1,3.1,0.4,5.1,1.1c1.7,0.6,2.5,2.6,2.2,4.3c-0.5,2.6-0.8,5.2-0.8,7.9c0,21.7,17.6,39.3,39.3,39.3s39.3-17.6,39.3-39.3c0-3-0.3-5.9-1-8.7c-0.4-1.7,0.5-3.7,2.2-4.1c1.3-0.3,2.4-0.5,3.3-0.6c1.8-0.1,4.7,0.5,5.9,1.7C202.7,489.6,192.5,513.9,195.7,513.5z"/><path d="M900.1,482c-15.7-3.6-29-3-35.1-2.5c-1.7,0.2-3.1,1.7-3.1,3.5v51.4c0,1.7-1.3,2.8-3,2.4c-3.4-0.8-6.4-1.2-9.9-1.2c-24.9,0-45,19.9-45,44.8c0,6.8,1.5,13.3,4.3,18.9c0.7,1.6,0.1,2.8-1.7,2.8H609.1c-1.7,0-3.7-1.3-4.3-2.9l-21.2-56.6c6.1-5.5,10.1-13.5,10.1-22.4c0-0.1-21.8-207.7-22.1-210.2c-4.8-42-31.9-73.4-71.8-73.4c-1,0-54.6,0-79.7,0c0,0-91.5,0-92.5,0c-39.9,0-71.8,31.9-71.8,73.4c0,2.3-21.1,152.8-24.4,176.2L193.6,549c-0.9,1.5-3.1,2.7-4.9,2.7h-87.1c-1.8,0-4-1.2-5-2.7l-28.9-44.1c-1-1.5-2.4-4-3.3-5.5c-2.2-3.4-5.1-6.3-8.8-8.5c-12.7-7.6-34.5-3.5-42.1,9.2c-5.6,9.4-4.3,20.9,1.9,29.8l55.8,90.9c0.9,1.5,1.4,4.1,1.1,5.9L46,753.8c-0.3,1.7,0.9,3.2,2.7,3.2H65c0,44.7,0.1,105,0.3,106.1c2,17.8,18.1,34.2,37.6,34.2c20.7,0,35.8-17.3,36.1-36.2l0-95.8c0-1.7,1.4-3.2,3.2-3.2h4.7c1.7,0,3.2,1.4,3.2,3.2l0,95.3c0.3,18.9,19,36.7,39.7,36.7c20.7,0,37.2-17.9,37.5-36.8V756.9h17c1.8,0,2.9-1.4,2.6-3.1l-26.3-129.7c-0.4-1.7,0.1-4.4,1-5.9c0,0,64.7-112.5,65.2-114.2l0,0c2.4-4.3,4.1-9.4,5-14.7c0,0,24.9-153.7,24.9-153.7c0-1.7,1.4-3.2,3.2-3.2h6.4c1.7,0,3.2,1.4,3.2,3.2c0,0,0,519,0,519.1c0,21.6,17.5,39.1,39.1,39.1s39.1-17.5,39.1-39.1c0-0.1,0-305.4,0-305.4c0-2.2,1-3.2,3.2-3.2h6.3c2.2,0,3.2,0.9,3.2,3.2c0,0,0,305.3,0,305.4c0,21.6,17.5,39.1,39.1,39.1c21.6,0,39.1-17.5,39.1-39.1c0-14.7,0-7.1,0-519.1c0-1.7,1.4-3.2,3.2-3.2h6.4c1.7,0,3.2,1.4,3.2,3.2c0,0,22.1,184.7,22.1,184.7c0,15.7,12,28.4,27.3,30c12,31.7,25.7,67.4,25.7,67.4c0.8,1.5,1.1,4.2,1,5.9c-0.4,10.6,6.1,27.6,8.9,34.1c11.9,34.9,37.1,76.8,84.1,103.1c0,0.1,0,0.2-0.1,0.3l-5.5,12.7c-0.3,0.7-0.8,1.3-1.5,1.8c-24.5,0.3-44.3,20.2-44.3,44.8c0,24.8,20.1,44.9,44.9,44.9c24.8,0,44.9-20.1,44.9-44.9c0-10.3-3.5-19.7-9.3-27.3c0.1-0.4,0-0.9,0.2-1.2l6.4-15c0.1-0.3,0.3-0.5,0.5-0.7c20.4,6.3,43.8,10,70.7,10c33.6,0,61.9-5.3,85.8-14.1l8.1,18.9c0.6,1.4,0.4,3.3-0.2,4.8c-4.7,7.1-7.4,15.5-7.4,24.6c0,24.8,20.1,44.9,44.9,44.9c24.8,0,44.9-20.1,44.9-44.9c0-19-11.9-35.3-28.6-41.8c-5.3-2.4-11.1-3.7-17.2-3.7c-0.1,0-0.2,0-0.3,0c-0.2,0-0.9-1.3-1.6-2.9l-7.4-17.2c63-39.7,82-107.1,82-141.4C989.9,568.1,979.1,496.7,900.1,482z"/></g></g><g></g><g></g><g></g><g></g><g></g><g></g><g></g><g></g><g></g><g></g><g></g><g></g><g></g><g></g><g></g></g>
</svg>