<svg xmlns="http://www.w3.org/2000/svg" viewBox="0 0 176 176"><path d="M136.5 54.649V47.5c0-1.93-1.57-3.5-3.5-3.5h-13c-1.93 0-3.5 1.57-3.5 3.5v3.833c-3.288-.373-6.445-.662-9.36-.886.604-13.248.924-22.149.932-22.371 0-9.862-7.646-28.076-18.54-28.076h-.492C78.146 0 70.5 18.214 70.501 28.165c.006.178.323 8.967.921 22.091-2.709.177-5.352.387-7.923.632V47.5c0-1.93-1.57-3.5-3.5-3.5H47c-1.93 0-3.5 1.57-3.5 3.5v6.253c-4.378.883-8.394 1.897-11.98 3.04-14.058 4.48-21.186 10.705-21.186 18.501 0 5.093 3.129 8.551 9.301 10.276 5.444 1.521 13.202 1.731 20.774 1.731 3.256 0 6.725-.044 10.396-.092 4.133-.053 8.406-.108 12.915-.108 3.409 0 6.594.034 9.624.1.269 4.541.555 9.149.859 13.751 1.24 18.756 2.55 34.134 3.903 45.823-.736-.006-1.462-.012-2.164-.018-1.535-.014-2.985-.027-4.333-.027-6.358 0-12.934 0-12.934 4.717 0 4.856 10.244 11.344 22.068 13.189C82.832 174.96 84.804 176 87.04 176h4.493c2.24 0 4.215-1.045 6.306-11.421 11.545-1.926 21.485-8.323 21.485-13.109 0-4.672-6.461-4.649-12.709-4.649-1.205 0-2.494.055-3.854.066-.75.006-1.523.034-2.315.061 1.36-11.71 2.678-27.145 3.924-45.994.303-4.585.589-9.177.856-13.703 1.102-.007 2.223-.012 3.375-.012 5.139 0 9.996.072 14.693.142 4.136.062 8.042.119 11.683.119 16.173 0 30.69-.934 30.69-12.205 0-10.785-13.556-17.03-29.167-20.646z"/></svg>